C:\Users\r0593348\3dpredictsim\Results\Batchsim_tmt_linear\Pog_s1_tmt_aCst_d05_k500_ig24_pas_GRF.mot
nRows=10
nColumns=19

name C:\Users\r0593348\3dpredictsim\Results\Batchsim_tmt_linear\Pog_s1_tmt_aCst_d05_k500_ig24_pas_GRF.mot
datacolumns 19
datarows 10
range 0.5543687233 0.6541550935
endheader
time 	ground_force_vx	ground_force_vy	ground_force_vz	ground_force_px	ground_force_py	ground_force_pz	1_ground_force_vx	1_ground_force_vy	1_ground_force_vz	1_ground_force_px	1_ground_force_py	1_ground_force_pz	ground_torque_x	ground_torque_y	ground_torque_z	1_ground_torque_x	1_ground_torque_y	1_ground_torque_z
        0.5543687233	       94.1985108951	      470.5488491965	        5.2316596838	        0.3722503463	        0.0000000000	        0.0347516806	      -95.5917579773	       90.7456567814	      -44.1700573825	        0.8619549590	        0.0000000000	       -0.0374172401	        0.0000000000	        0.0000000000	        0.0000000000	        0.0000000000	        0.0000000000	        0.0000000000	
        0.5654560978	       75.9055413211	      386.6157538324	       10.6479613906	        0.3764419188	        0.0000000000	        0.0335714749	      -89.0041843199	      191.0162134319	      -78.1128453009	        0.8679832204	        0.0000000000	       -0.0355676941	        0.0000000000	        0.0000000000	        0.0000000000	        0.0000000000	        0.0000000000	        0.0000000000	
        0.5765434723	       55.2160128516	      298.4167635396	        7.9788428576	        0.3829883032	        0.0000000000	        0.0310648554	      -44.9980745539	      348.5119547810	      -17.7389473129	        0.8720409501	        0.0000000000	       -0.0337647313	        0.0000000000	        0.0000000000	        0.0000000000	        0.0000000000	        0.0000000000	        0.0000000000	
        0.5876308467	       28.1617955508	      198.2436080248	        6.2861104230	        0.3956262415	        0.0000000000	        0.0254843837	      -50.7431102713	      518.5583144121	        1.7989181976	        0.8774335909	        0.0000000000	       -0.0347647276	        0.0000000000	        0.0000000000	        0.0000000000	        0.0000000000	        0.0000000000	        0.0000000000	
        0.5987182212	        8.1999398534	      139.1410172498	       10.8034035170	        0.4088299701	        0.0000000000	        0.0187368329	      -85.6515451374	      696.6465105464	        9.0827490318	        0.8854867548	        0.0000000000	       -0.0372259717	        0.0000000000	        0.0000000000	        0.0000000000	        0.0000000000	        0.0000000000	        0.0000000000	
        0.6098055957	        1.2619168677	      109.8112340408	       12.0312465318	        0.4086867345	        0.0000000000	        0.0190459558	     -107.3710941014	      806.6173863680	       12.5270659201	        0.8910449272	        0.0000000000	       -0.0388087916	        0.0000000000	        0.0000000000	        0.0000000000	        0.0000000000	        0.0000000000	        0.0000000000	
        0.6208929701	       -2.3426040442	       71.8121836262	       11.0241753810	        0.4092011055	        0.0000000000	        0.0190986341	     -111.5590770717	      844.5953489778	       13.3686216901	        0.8948689398	        0.0000000000	       -0.0397603751	        0.0000000000	        0.0000000000	        0.0000000000	        0.0000000000	        0.0000000000	        0.0000000000	
        0.6319803446	       -8.0532909993	       29.8248636176	        5.9451012001	        0.4089426635	        0.0000000000	        0.0189181639	     -106.5447942879	      839.7817242992	       13.5364260361	        0.8979190377	        0.0000000000	       -0.0403157993	        0.0000000000	        0.0000000000	        0.0000000000	        0.0000000000	        0.0000000000	        0.0000000000	
        0.6430677191	        0.0793866669	       -0.0782842346	       -0.0015140849	        0.0000000000	        0.0000000000	        0.0000000000	      -97.1793631196	      820.7561248376	       13.9282691843	        0.9010424513	        0.0000000000	       -0.0405981224	        0.0000000000	        0.0000000000	        0.0000000000	        0.0000000000	        0.0000000000	        0.0000000000	
        0.6541550935	        0.0000912081	       -0.0000738054	        0.0000052918	        0.0000000000	        0.0000000000	        0.0000000000	      -84.9557054104	      791.2670286212	       14.6661507818	        0.9043085282	        0.0000000000	       -0.0407169834	        0.0000000000	        0.0000000000	        0.0000000000	        0.0000000000	        0.0000000000	        0.0000000000	
